<svg width="24" height="24" viewBox="0 0 24 24" fill="none" xmlns="http://www.w3.org/2000/svg">
<g clip-path="url(#clip0_2249_6185)">
<path d="M24 5.67188V2.15625C24 0.993141 23.0537 0.046875 21.8906 0.046875H2.10938C0.946266 0.046875 0 0.993141 0 2.15625V5.67188H24ZM16.2188 2.85938H20.4375C20.8258 2.85938 21.1406 3.17419 21.1406 3.5625C21.1406 3.95081 20.8258 4.26562 20.4375 4.26562H16.2188C15.8304 4.26562 15.5156 3.95081 15.5156 3.5625C15.5156 3.17419 15.8304 2.85938 16.2188 2.85938ZM9.1875 2.85938C9.57581 2.85938 9.89062 3.17419 9.89062 3.5625C9.89062 3.95081 9.57581 4.26562 9.1875 4.26562C8.79919 4.26562 8.48438 3.95081 8.48438 3.5625C8.48438 3.17419 8.79919 2.85938 9.1875 2.85938ZM6.375 2.85938C6.76331 2.85938 7.07812 3.17419 7.07812 3.5625C7.07812 3.95081 6.76331 4.26562 6.375 4.26562C5.98669 4.26562 5.67188 3.95081 5.67188 3.5625C5.67188 3.17419 5.98669 2.85938 6.375 2.85938ZM3.5625 2.85938C3.95081 2.85938 4.26562 3.17419 4.26562 3.5625C4.26562 3.95081 3.95081 4.26562 3.5625 4.26562C3.17419 4.26562 2.85938 3.95081 2.85938 3.5625C2.85938 3.17419 3.17419 2.85938 3.5625 2.85938Z" fill="white"/>
<path d="M0 7.07812V21.8438C0 23.0069 0.946266 23.9531 2.10938 23.9531H21.8906C23.0537 23.9531 24 23.0069 24 21.8438V7.07812H0ZM8.22047 17.076C8.52375 17.3185 8.57288 17.761 8.3303 18.0642C8.08777 18.3674 7.64522 18.4166 7.34203 18.174L3.82641 15.3615C3.47489 15.0804 3.47466 14.5448 3.82641 14.2634L7.34203 11.4509C7.64513 11.2083 8.08767 11.2575 8.3303 11.5607C8.57288 11.8639 8.52375 12.3064 8.22047 12.549L5.39119 14.8125L8.22047 17.076ZM14.7556 10.1676L10.5369 20.0114C10.3839 20.3682 9.97069 20.5337 9.61364 20.3806C9.25673 20.2277 9.09136 19.8143 9.24436 19.4574L13.4631 9.61364C13.6161 9.25673 14.0295 9.09141 14.3864 9.24436C14.7433 9.39731 14.9086 9.81066 14.7556 10.1676ZM20.1736 15.3615L16.658 18.174C16.3552 18.4163 15.9127 18.3679 15.6697 18.0643C15.4271 17.761 15.4763 17.3185 15.7795 17.076L18.6088 14.8125L15.7795 12.549C15.4763 12.3065 15.4271 11.864 15.6697 11.5608C15.9122 11.2575 16.3547 11.2084 16.658 11.451L20.1736 14.2635C20.5251 14.5446 20.5253 15.0802 20.1736 15.3615Z" fill="white"/>
</g>
<defs>
<clipPath id="clip0_2249_6185">
<rect width="24" height="24" fill="white"/>
</clipPath>
</defs>
</svg>
