<svg width="24" height="24" viewBox="0 0 24 24" fill="none" xmlns="http://www.w3.org/2000/svg">
<g clip-path="url(#clip0_2249_6217)">
<path d="M9.65936 3.3916C6.2028 3.3916 3.39062 6.20377 3.39062 9.66034C3.39062 13.1169 6.2028 15.9291 9.65936 15.9291C13.1159 15.9291 15.9281 13.1169 15.9281 9.66034C15.9281 6.20373 13.116 3.3916 9.65936 3.3916ZM13.4799 9.66034C13.4799 7.55373 11.766 5.83984 9.65936 5.83984V4.41404C12.5522 4.41404 14.9057 6.76754 14.9057 9.66034H13.4799Z" fill="white"/>
<path d="M23.2797 19.8019L18.9063 15.4285L17.6715 16.6633L16.9732 15.965C18.435 14.2717 19.3203 12.0674 19.3203 9.66009C19.3203 4.33355 14.9867 0 9.66014 0C4.33355 0 0 4.33355 0 9.66014C0 14.9867 4.33355 19.3202 9.66009 19.3202C12.0674 19.3202 14.2717 18.435 15.965 16.9731L16.6633 17.6715L15.4285 18.9063L19.8019 23.2796C20.2664 23.7441 20.8839 24 21.5408 24C22.1977 24 22.8152 23.7442 23.2797 23.2797C23.7442 22.8152 24 22.1977 24 21.5408C24 20.8839 23.7442 20.2663 23.2797 19.8019ZM9.66009 17.3547C5.41734 17.3547 1.96556 13.9029 1.96556 9.66014C1.96556 5.41734 5.41734 1.96561 9.66009 1.96561C13.9028 1.96561 17.3546 5.41739 17.3546 9.66014C17.3546 13.9029 13.9029 17.3547 9.66009 17.3547Z" fill="white"/>
</g>
<defs>
<clipPath id="clip0_2249_6217">
<rect width="24" height="24" fill="white"/>
</clipPath>
</defs>
</svg>
