<svg width="24" height="24" viewBox="0 0 24 24" fill="none" xmlns="http://www.w3.org/2000/svg">
<g clip-path="url(#clip0_2249_6227)">
<path d="M2.13764 8.48682C2.13764 8.0985 1.82283 7.78369 1.43452 7.78369H0.703125C0.314812 7.78369 0 8.0985 0 8.48682C0 8.87513 0.314812 9.18994 0.703125 9.18994H1.43452C1.82283 9.18994 2.13764 8.87513 2.13764 8.48682Z" fill="white"/>
<path d="M2.50349 2.84254C3.1363 2.84254 3.45158 2.06203 2.98316 1.6252L2.44827 1.12636C2.16425 0.86156 1.71931 0.877123 1.45452 1.16104C1.18967 1.44506 1.20524 1.88995 1.4892 2.15479C1.92139 2.50758 2.07444 2.84254 2.50349 2.84254Z" fill="white"/>
<path d="M2.02412 14.2216L1.48923 14.7204C1.20521 14.9852 1.1897 15.4302 1.45449 15.7141C1.71943 15.9982 2.16427 16.0137 2.44829 15.7489L2.98318 15.2501C3.2672 14.9852 3.28271 14.5403 3.01792 14.2563C2.75302 13.9723 2.30813 13.9568 2.02412 14.2216Z" fill="white"/>
<path d="M23.2978 7.68506H22.5664C22.1781 7.68506 21.8633 7.99987 21.8633 8.38818C21.8633 8.7765 22.1781 9.09131 22.5664 9.09131H23.2978C23.6861 9.09131 24.0009 8.7765 24.0009 8.38818C24.0009 7.99987 23.6861 7.68506 23.2978 7.68506Z" fill="white"/>
<path d="M21.9756 14.2215C21.6916 13.9568 21.2467 13.9723 20.9818 14.2563C20.717 14.5403 20.7326 14.9852 21.0166 15.25L21.5515 15.7488C21.8361 16.0142 22.2809 15.9975 22.5453 15.7141C22.8101 15.4301 22.7945 14.9852 22.5105 14.7203L21.9756 14.2215Z" fill="white"/>
<path d="M21.9756 2.65364L22.5105 2.15485C22.7945 1.89 22.8101 1.44507 22.5452 1.1611C22.2804 0.877129 21.8354 0.86152 21.5515 1.12641L21.0166 1.62521C20.7325 1.89005 20.717 2.33499 20.9819 2.61896C21.2468 2.90297 21.6917 2.91844 21.9756 2.65364Z" fill="white"/>
<path d="M8.01562 19.0547C8.01562 19.9293 8.55117 20.681 9.31144 21H14.6886C15.4488 20.681 15.9844 19.9293 15.9844 19.0547V18.0469H8.01562V19.0547Z" fill="white"/>
<path d="M9.42188 23.2969C9.42188 23.685 9.73687 24 10.125 24H13.875C14.2631 24 14.5781 23.685 14.5781 23.2969V22.4062H9.42188V23.2969Z" fill="white"/>
<path d="M20.1351 8.43749C22.1357 6.3952 20.9798 2.95063 18.18 2.50471C17.4772 0.167947 14.6532 -0.762241 12.7031 0.704853V16.8984H14.8125C16.3996 16.8984 17.7539 15.856 18.187 14.3691C20.9715 13.92 22.1395 10.4836 20.1351 8.43749ZM14.1094 4.26562C14.1094 3.87731 14.4242 3.56249 14.8125 3.56249C15.2008 3.56249 15.5156 3.87731 15.5156 4.26562C15.5156 4.98567 15.7886 5.11757 16.3323 5.38031C16.8471 5.62902 17.625 6.00487 17.625 7.07812C17.625 7.46643 17.3102 7.78124 16.9219 7.78124C16.5336 7.78124 16.2188 7.46643 16.2188 7.07812C16.2188 6.92385 16.2188 6.8872 15.7206 6.64649C15.118 6.35535 14.1094 5.86804 14.1094 4.26562ZM18.2799 10.8992C17.4704 12.0209 16.2199 12.4864 15.8639 12.4864C15.5579 12.4864 15.2765 12.2852 15.1882 11.9764C15.0814 11.6031 15.2975 11.2139 15.6709 11.1071C16.2521 10.9409 16.7775 10.5779 17.1396 10.0762C17.3668 9.76134 17.8063 9.69032 18.1212 9.91753C18.4361 10.1448 18.5071 10.5843 18.2799 10.8992Z" fill="white"/>
<path d="M11.2969 16.8984V0.704852C9.34694 -0.762195 6.52286 0.167852 5.82002 2.50471C3.01872 2.95091 1.86517 6.39609 3.865 8.43749C1.85988 10.4843 3.02988 13.9202 5.81303 14.3691C6.24761 15.8609 7.60464 16.8984 9.18756 16.8984H11.2969ZM7.66769 5.38031C8.21144 5.11757 8.48439 4.98571 8.48439 4.26562C8.48439 3.87731 8.7992 3.56249 9.18752 3.56249C9.57583 3.56249 9.89064 3.87731 9.89064 4.26562C9.89064 5.86804 8.88203 6.35535 8.27945 6.64649C7.78127 6.8872 7.78127 6.92385 7.78127 7.07812C7.78127 7.46643 7.46645 7.78124 7.07814 7.78124C6.68983 7.78124 6.37502 7.46643 6.37502 7.07812C6.37502 6.00487 7.15291 5.62902 7.66769 5.38031ZM8.81186 11.9764C8.72359 12.2851 8.44211 12.4864 8.13616 12.4864C7.76931 12.4864 6.60053 12.0246 5.82217 11.0346C5.58213 10.7293 5.63505 10.2873 5.9403 10.0473C6.24564 9.80723 6.68763 9.86015 6.92763 10.1654C7.27783 10.6108 7.77119 10.9475 8.32914 11.107C8.70255 11.2139 8.91864 11.6031 8.81186 11.9764Z" fill="white"/>
</g>
<defs>
<clipPath id="clip0_2249_6227">
<rect width="24" height="24" fill="white"/>
</clipPath>
</defs>
</svg>
