<svg width="67" height="48" viewBox="0 0 67 48" fill="none" xmlns="http://www.w3.org/2000/svg">
<path d="M41.5519 33.6C43.8051 37.4667 46.7873 39.4 50.4985 39.4C55.1375 39.4 57.457 37.6 57.457 34C57.457 31.8 54.4748 29.8 49.7033 27.8C40.8229 24.8667 36.4491 19.8667 36.5816 12.8C36.5816 5.6 41.9496 0 50.4985 0C56.8605 0 61.367 2.6 64.0178 7.8L56.6617 12.6C55.0712 9.66667 53.0168 8.26667 50.4985 8.4C47.5826 8.53333 46.0584 9.93333 45.9258 12.6C45.9258 15.4 47.7151 16.6 53.6795 19.2C62.2285 22.6 67 26.4 67 34.6C66.6024 43.2667 61.367 47.7333 51.2938 48C42.9436 48 37.0455 44.7333 33.5994 38.2L41.5519 33.6ZM7.75371 34.4C9.34421 37 10.3383 39.4 14.3145 39.4C17.4955 39.4 19.0861 37.4 19.0861 33.4V0.2H28.6291V33C28.4965 42.4667 23.725 47.2667 14.3145 47.4C7.28981 47.2667 2.5183 44.3333 0 38.6L7.75371 34.4Z" fill="#6A6A6A"/>
</svg>
