<svg width="24" height="24" viewBox="0 0 24 24" fill="none" xmlns="http://www.w3.org/2000/svg">
<g clip-path="url(#clip0_2249_6191)">
<path d="M11.9985 0.750007C11.9117 0.750155 11.8275 0.780487 11.7605 0.835778C11.7605 0.835778 10.9852 1.48068 10.3184 2.62434H13.6824C13.0153 1.48068 12.2395 0.835778 12.2395 0.835778C12.1717 0.779843 12.0864 0.749471 11.9985 0.750007ZM1.87353 2.9971C1.25677 2.9971 0.75 3.50678 0.75 4.12354V17.6243C0.75 18.2411 1.25677 18.7478 1.87353 18.7478H22.1235C22.7403 18.7478 23.25 18.2411 23.25 17.6243V4.12354C23.25 3.50678 22.7403 2.9971 22.1235 2.9971H14.7158C14.8225 3.23324 14.9196 3.48404 15.0066 3.74707H22.1235C22.3378 3.74707 22.5 3.9093 22.5 4.12354V14.9978H1.49707V4.12354C1.49707 3.9093 1.65929 3.74707 1.87353 3.74707H8.99414C9.08112 3.48396 9.17823 3.2333 9.28491 2.9971H1.87353ZM9.9353 3.37427C9.61154 4.11346 9.375 4.99555 9.375 5.99857C9.375 8.7307 10.5762 10.3499 10.5762 10.3499C10.611 10.3962 10.6562 10.4337 10.708 10.4597C10.7599 10.4856 10.817 10.4992 10.875 10.4993H13.1257C13.1837 10.4992 13.2409 10.4856 13.2927 10.4597C13.3446 10.4337 13.3897 10.3962 13.4246 10.3499C13.4246 10.3499 14.6257 8.7307 14.6257 5.99857C14.6257 4.99568 14.3892 4.1134 14.0654 3.37427H9.9353ZM11.9985 4.87429C12.6154 4.87429 13.1257 5.38168 13.1257 5.99857C13.1257 6.61545 12.6154 7.12502 11.9985 7.12502C11.3817 7.12502 10.875 6.61545 10.875 5.99857C10.875 5.38168 11.3817 4.87429 11.9985 4.87429ZM8.71069 7.25465C8.70188 7.2674 8.69307 7.2782 8.68433 7.29124C8.26666 7.91774 7.87061 8.93673 7.87061 10.4992C7.87092 10.8947 8.40389 11.0205 8.5818 10.6677C8.5818 10.6677 8.8334 10.1653 9.42628 9.7873C9.15229 9.18066 8.85358 8.32868 8.71069 7.25465ZM15.2893 7.25893C15.1461 8.33179 14.8475 9.18284 14.5737 9.78873C15.1648 10.1665 15.4153 10.6676 15.4153 10.6676C15.5932 11.0204 16.1261 10.8946 16.1265 10.4992C16.1265 8.93666 15.7304 7.91765 15.3127 7.29115C15.3051 7.27982 15.2971 7.27027 15.2893 7.25893ZM10.875 11.2492C10.6688 11.2499 10.5019 11.4172 10.5015 11.6234C10.5015 13.3109 11.7913 14.1869 11.7913 14.1869C11.8531 14.2281 11.9257 14.25 12 14.2498C12.0743 14.25 12.1477 14.228 12.2095 14.1869C12.2095 14.1869 13.4993 13.3109 13.4993 11.6234C13.4989 11.4172 13.332 11.25 13.1257 11.2492C12.3755 11.2503 11.6252 11.2495 10.875 11.2492ZM9.77417 12.0292C9.02008 12.15 8.38164 12.6501 8.07495 13.3431C7.77924 13.2043 7.45817 13.124 7.12573 13.1234C6.2969 13.1234 5.5735 13.5775 5.18408 14.2477H10.7761C10.3669 13.7847 9.88094 13.0432 9.77417 12.0292ZM14.2273 12.0292C14.1205 13.0432 13.6346 13.7845 13.2253 14.2477H18.8159C18.4257 13.5775 17.7013 13.1234 16.8735 13.1234C16.5426 13.1242 16.2215 13.2042 15.9258 13.3431C15.6192 12.6503 14.9811 12.1502 14.2273 12.0292ZM11.25 16.4977H12.7471C12.797 16.4966 12.8467 16.5055 12.8931 16.5238C12.9396 16.5422 12.9819 16.5696 13.0176 16.6046C13.0533 16.6395 13.0817 16.6812 13.101 16.7272C13.1204 16.7733 13.1304 16.8228 13.1304 16.8727C13.1304 16.9227 13.1204 16.9721 13.101 17.0181C13.0817 17.0642 13.0533 17.1059 13.0176 17.1408C12.9819 17.1758 12.9396 17.2032 12.8931 17.2215C12.8467 17.2399 12.797 17.2488 12.7471 17.2477H11.25C11.2001 17.2488 11.1504 17.2399 11.104 17.2215C11.0575 17.2032 11.0152 17.1758 10.9795 17.1408C10.9438 17.1059 10.9154 17.0642 10.896 17.0181C10.8767 16.9721 10.8667 16.9227 10.8667 16.8727C10.8667 16.8228 10.8767 16.7733 10.896 16.7272C10.9154 16.6812 10.9438 16.6395 10.9795 16.6046C11.0152 16.5696 11.0575 16.5422 11.104 16.5238C11.1504 16.5055 11.2001 16.4966 11.25 16.4977ZM9.6189 19.4977C9.53437 19.7252 9.40649 19.9787 9.20727 20.2484H14.7898C14.5907 19.9787 14.4626 19.7252 14.3782 19.4977H9.6189ZM7.8728 20.9985C7.25604 20.9985 6.74853 21.5061 6.74853 22.1228V22.8728C6.74815 22.9723 6.78729 23.0678 6.85734 23.1384C6.92739 23.209 7.02262 23.2489 7.12207 23.2493H16.875C16.9745 23.2489 17.0697 23.209 17.1397 23.1384C17.2098 23.0678 17.2489 22.9723 17.2485 22.8728V22.1228C17.2485 21.5061 16.741 20.9985 16.1243 20.9985H7.8728Z" fill="white"/>
</g>
<defs>
<clipPath id="clip0_2249_6191">
<rect width="24" height="24" fill="white"/>
</clipPath>
</defs>
</svg>
