<svg width="23" height="16" viewBox="0 0 23 16" fill="none" xmlns="http://www.w3.org/2000/svg">
<g clip-path="url(#clip0_2249_8158)">
<path d="M23 10.7677V14.9208C23 15.031 22.9559 15.1366 22.8774 15.2145C22.7988 15.2924 22.6923 15.3361 22.5813 15.3361H18.5436C18.4614 15.3361 18.3811 15.3121 18.3126 15.2672C18.2442 15.2222 18.1905 15.1583 18.1584 15.0833C18.1262 15.0084 18.1171 14.9257 18.1319 14.8456C18.1468 14.7655 18.1851 14.6915 18.2421 14.6328L22.2798 10.4796C22.3377 10.42 22.4123 10.379 22.4939 10.3617C22.5755 10.3444 22.6605 10.3517 22.7379 10.3827C22.8153 10.4136 22.8816 10.4668 22.9283 10.5354C22.975 10.604 23 10.6849 23 10.7677Z" fill="#890620"/>
<path d="M22.2801 0.128562L15.4994 7.10674C15.4124 7.19623 15.302 7.26007 15.1806 7.29117C15.0592 7.32227 14.9314 7.31943 14.8115 7.28295L14.7272 7.25714C14.5886 7.21467 14.4673 7.12929 14.3812 7.01349C14.2951 6.8977 14.2486 6.75759 14.2487 6.6137V1.2066C14.2488 1.12358 14.2238 1.04244 14.1769 0.973648C14.1301 0.904854 14.0635 0.851564 13.9858 0.820655C13.9081 0.789746 13.8229 0.782637 13.7411 0.800245C13.6593 0.817854 13.5847 0.859371 13.5269 0.91944L0.101409 14.7346C0.0528136 14.7849 0.0201797 14.8483 0.00755302 14.9168C-0.00507372 14.9854 0.00286206 15.0561 0.0303763 15.1202C0.0578906 15.1843 0.103773 15.239 0.162336 15.2775C0.220898 15.316 0.289565 15.3366 0.359822 15.3368H7.32233C7.37861 15.3368 7.43431 15.3256 7.48611 15.3038C7.53791 15.2819 7.58474 15.25 7.62381 15.2098L13.0792 9.59715C13.1732 9.50095 13.294 9.43476 13.4261 9.40701C13.5583 9.37927 13.6957 9.39125 13.821 9.44141C13.9462 9.49157 14.0535 9.57764 14.1292 9.68862C14.2048 9.79959 14.2454 9.93042 14.2457 10.0644V15.5842C14.2456 15.667 14.2706 15.7479 14.3172 15.8166C14.3639 15.8852 14.4302 15.9385 14.5077 15.9695C14.5851 16.0005 14.6701 16.0078 14.7517 15.9905C14.8334 15.9733 14.9079 15.9322 14.9659 15.8726L15.4875 15.3368L22.8831 7.72645C22.9583 7.64902 23.0004 7.54565 23.0003 7.4381V0.416612C23.0003 0.333834 22.9753 0.252954 22.9286 0.184353C22.8819 0.115751 22.8156 0.0625583 22.7382 0.0316009C22.6608 0.000643579 22.5758 -0.00666525 22.4942 0.0106112C22.4126 0.0278877 22.338 0.0689615 22.2801 0.128562Z" fill="#890620"/>
</g>
<defs>
<clipPath id="clip0_2249_8158">
<rect width="23" height="16" fill="white"/>
</clipPath>
</defs>
</svg>
