<svg width="24" height="24" viewBox="0 0 24 24" fill="none" xmlns="http://www.w3.org/2000/svg">
<path d="M11.1275 21.1273H10.5821V20.0728H6.29116V21.1273H5.70934C5.52752 21.1273 5.3457 21.3091 5.3457 21.4909C5.3457 21.7091 5.52752 21.8546 5.70934 21.8546H6.29116V22.2182C6.29116 23.0182 6.9457 23.6364 7.70934 23.6364H9.12752C9.92752 23.6364 10.5457 22.9818 10.5457 22.2182V21.8546H11.0912C11.3093 21.8546 11.4548 21.7091 11.4548 21.4909C11.4912 21.3091 11.3457 21.1273 11.1275 21.1273Z" fill="white"/>
<path d="M12.9463 9.09086L9.819 8.18177C8.32809 9.52722 5.819 8.10904 6.43718 6.03631C6.72809 5.16359 7.52809 4.5454 8.43718 4.5454C9.20082 4.5454 9.89173 4.94541 10.2554 5.63631C10.3281 5.78177 10.4008 5.92722 10.4372 6.07268L13.4917 6.98177C14.2554 6.2545 15.0554 6.47268 15.2735 6.43631C15.0917 3.59995 12.5463 0.763586 9.23718 0.39995C7.23718 0.181768 5.30991 0.79995 3.85536 2.10904C2.40082 3.41813 1.56445 5.30904 1.56445 7.23631C1.56445 9.4545 2.65536 11.5636 4.43718 12.8363C5.019 13.2727 5.52809 14.2909 5.78263 15.2727H8.10991V10.4727H7.419C7.23718 10.4727 7.05536 10.3272 7.05536 10.109C7.05536 9.92722 7.23718 9.74541 7.419 9.74541H9.52809C9.70991 9.74541 9.89173 9.92722 9.89173 10.109C9.89173 10.3272 9.70991 10.4727 9.52809 10.4727H8.83718V15.309H11.1645C11.419 14.3272 11.9281 13.2727 12.5463 12.8363C13.3826 12.2181 14.0735 11.4545 14.5463 10.5454C13.7826 10.4 13.1645 9.81813 12.9463 9.09086Z" fill="white"/>
<path d="M22.0732 7.52741C21.5277 6.98195 20.6914 6.98195 20.1459 7.52741C19.9641 7.70922 19.855 7.92741 19.7823 8.14559H16.1823C16.1459 8.0365 16.1095 7.92741 16.0368 7.81832L18.255 4.90922C19.1641 5.34559 20.2186 4.69104 20.2186 3.70922C20.2186 2.94559 19.6004 2.36377 18.8732 2.36377C18.1095 2.36377 17.5277 2.98195 17.5277 3.70922C17.5277 3.96377 17.6004 4.21832 17.7459 4.4365L15.5277 7.34559C15.3459 7.2365 15.1277 7.20013 14.9095 7.16377C14.4004 7.16377 13.9641 7.41831 13.7459 7.81832L9.78226 6.61832C9.78226 6.40013 9.7459 6.14559 9.63681 5.96377C9.05499 4.90922 7.49135 5.05468 7.16408 6.21832C6.72772 7.70922 8.76408 8.65468 9.60044 7.34559L13.6004 8.54559C13.6368 9.52741 14.655 10.182 15.5641 9.74559L17.7823 12.6183C17.6732 12.8001 17.6004 13.0547 17.6004 13.2729C17.6004 15.0547 20.2914 15.0547 20.2914 13.2729C20.2914 12.5456 19.6732 11.9274 18.9459 11.9274C18.7277 11.9274 18.4732 12.0001 18.2914 12.1092L16.1095 9.2365C16.1823 9.12741 16.2186 9.01831 16.255 8.87286H19.855C19.9277 9.09104 20.0368 9.27286 20.1823 9.41831C20.6914 9.96377 21.5641 9.96377 22.1095 9.41831C22.6186 8.90922 22.6186 8.07286 22.0732 7.52741Z" fill="white"/>
<path d="M4.47266 18.9818C4.47266 19.2 4.61811 19.3455 4.83629 19.3455H12.0363C12.2545 19.3455 12.3999 19.2 12.3999 18.9818V18.0728H4.47266V18.9818Z" fill="white"/>
<path d="M12.0363 16.0361H4.83629C4.61811 16.0361 4.47266 16.1816 4.47266 16.3998V17.3089H12.3999V16.3998C12.3999 16.218 12.2181 16.0361 12.0363 16.0361Z" fill="white"/>
</svg>
